<svg width="20" height="20" viewBox="0 0 20 20" fill="none" xmlns="http://www.w3.org/2000/svg">
<g clip-path="url(#clip0_33_3219)">
<path d="M12.9666 0C17.7111 0.615068 19.8886 5.63839 19.9955 9.61183C20.1097 13.8535 17.9644 19.4519 12.7801 19.9694C10.965 19.8914 9.05992 20.0675 7.25495 19.9694C5.84172 19.8925 4.46354 19.2911 3.47145 18.3693C3.89938 18.2286 4.24534 17.9297 4.62917 17.7121C4.72866 17.6978 5.41888 18.2602 5.6286 18.2897C5.96326 18.3366 6.45958 17.8507 6.76258 17.7121C6.84737 17.7 7.50763 18.2038 7.66591 18.2602C8.09553 18.4141 8.52459 17.8628 8.90899 17.7442L8.53307 17.2166C8.40249 17.1381 8.01187 17.536 7.84228 17.5487C7.56812 17.4575 7.02318 16.95 6.75749 16.9663C6.51555 16.9811 5.88468 17.5534 5.70887 17.5487C5.44997 17.4617 4.87337 16.9505 4.62465 16.9652C4.30526 16.9842 3.20407 17.9087 2.94799 17.8902C2.68739 17.7326 1.45676 16.0761 1.52346 15.9501L2.49406 15.1353C2.60203 15.1174 3.24081 15.8816 3.45336 15.9517C3.8372 16.0782 4.3273 15.3187 4.62691 15.1353C4.72979 15.1185 5.33804 15.8279 5.5048 15.9075C6.05257 16.1699 6.23968 15.3641 6.55172 15.0968L7.56981 15.5222C7.40475 15.3103 7.35274 14.8238 7.19503 14.6436C7.10514 14.5408 6.49746 14.2915 6.34596 14.32C6.06501 14.3732 5.75071 15.1174 5.62804 15.0921C5.34935 14.9108 4.93047 14.2725 4.58282 14.3142C4.342 14.3432 3.80497 15.0167 3.57547 15.1706C3.50876 15.1706 2.81911 14.3753 2.6026 14.3221C2.46467 14.2883 2.38836 14.32 2.27869 14.3911C2.11136 14.4992 1.31261 15.354 1.19163 15.3272L0.688525 14.1139L1.79819 12.519C2.16733 12.6519 2.51498 13.3681 2.94517 13.2975C3.19955 13.2559 3.82985 12.4632 3.94573 12.4827C4.26795 12.6856 4.66817 13.3534 5.07801 13.2975C5.33013 13.2632 5.80724 12.6308 6.04918 12.4827C6.16393 12.4637 6.51837 13.0134 6.73318 12.9475C6.61617 12.5744 6.70435 11.8344 6.22951 11.6821C5.75466 11.5298 5.3714 12.313 4.99717 12.4811C4.65008 12.3225 4.24025 11.5883 3.82759 11.661C3.63652 11.6947 3.00678 12.4811 2.86376 12.4811C2.51611 12.3225 2.10684 11.5883 1.69418 11.661C1.41379 11.7105 0.697569 13.0366 0.417185 13.2595C0.137931 12.1496 0.00508762 11.0085 0 9.86692L1.77897 10.6501C2.08084 10.6601 2.60995 9.96601 2.86546 9.78944C3.20464 10.0003 3.69248 10.8493 4.13963 10.5863C4.32165 10.4794 4.94234 9.77469 5.04692 9.75624L6.44206 10.4909V9.71091C6.40305 9.70828 6.36405 9.69984 6.3307 9.68034C6.07801 9.53277 5.41549 9.10217 5.18542 9.03049C4.66535 8.86921 4.31939 9.63291 3.91747 9.82476C3.58621 9.62869 3.09666 8.79068 2.65574 9.04683C2.48332 9.14697 1.81911 9.90961 1.70266 9.8996C1.47258 9.76362 0.107405 9.21654 0.0497456 9.06106C-0.0927077 8.67578 0.608819 8.27206 0.859242 8.03489C1.17072 7.74027 1.44262 7.4077 1.78406 7.13996C1.90955 7.1194 2.56246 7.96216 2.8338 7.98693C3.1351 8.01434 3.6563 7.30071 3.91747 7.13996C4.04296 7.1194 4.69531 7.96216 4.96721 7.98693C5.26851 8.01434 5.78971 7.30071 6.05088 7.13996C6.1238 7.12784 6.43754 7.48201 6.52629 7.54684C6.57151 7.57952 6.57716 7.63433 6.63143 7.56687L6.77049 6.85219C6.57942 6.67773 6.27812 6.26136 5.98248 6.33515C5.73205 6.39787 5.0667 7.1758 5 7.1758C4.7411 6.99765 4.20237 6.27612 3.88129 6.32514C3.6173 6.36519 2.93499 7.1758 2.86659 7.1758C2.51498 6.95075 2.03109 6.0906 1.5472 6.41474C1.16337 6.67194 0.676653 7.26013 0.293951 7.58637C0.275297 7.60218 0.220464 7.67597 0.209723 7.62485C0.455625 6.52225 0.742227 5.40596 1.31826 4.40931L2.74279 5.30319C3.11362 5.36801 3.58621 4.87944 3.91238 4.73239C4.026 4.72659 4.67722 5.27156 4.91916 5.30319C5.29226 5.35168 5.75523 4.85677 6.09327 4.72817L7.27869 5.22729L7.48728 4.60484C7.09666 4.52737 6.46184 4.03932 6.1091 3.99557C5.84568 3.9629 5.25382 4.47677 4.99887 4.59167C4.74336 4.47677 4.15206 3.96237 3.88864 3.99557C3.62521 4.02878 3.13115 4.47782 2.86546 4.59061C2.69248 4.49943 1.65065 3.87593 1.64161 3.76525L2.03787 3.20763L5.21311 2.38174C5.51328 2.35803 6.11419 2.99312 6.42566 3.00314C6.66083 3.01104 7.27191 2.49295 7.51611 2.38859L8.52742 2.80444L8.91012 2.26368C8.53816 2.19569 7.88525 1.69816 7.55003 1.67549C7.21481 1.65283 6.74279 2.13087 6.42114 2.24998C6.11249 2.13719 5.65574 1.67602 5.33409 1.67444L2.71905 2.34011C3.55681 1.34503 4.75014 0.52547 6.07462 0.184468C6.3714 0.108045 6.76597 0.021082 7.0684 0H12.9661H12.9666ZM12.58 0.712046C11.4562 0.844863 10.2725 1.71871 9.57942 2.51667C6.30978 6.28245 6.30243 14.0059 9.76597 17.6673C11.3793 19.3728 13.2109 19.7676 15.3053 18.4626C20.4392 15.2634 20.5212 5.48449 15.8536 1.89053C15.0243 1.25175 13.6874 0.58081 12.58 0.711519V0.712046Z" fill="black"/>
<path d="M12.5811 0.712137C13.6885 0.580901 15.0254 1.25236 15.8547 1.89115C20.5223 5.48511 20.4404 15.264 15.3064 18.4632C13.2126 19.7682 11.3804 19.3734 9.7671 17.6679C6.30356 14.0065 6.31091 6.28254 9.58056 2.51729C10.2736 1.71933 11.4573 0.845481 12.5811 0.712664V0.712137ZM13.043 2.66381C11.6738 2.74339 10.6026 3.94823 10.0475 5.01814C10.3036 5.43188 10.6778 5.75232 10.9254 6.17449C12.1034 8.18783 12.1091 12.3673 10.6184 14.2473C10.4443 14.4671 10.2029 14.6711 10.0096 14.8777C10.9678 16.8799 13.2227 18.2803 15.2487 16.4588C18.2188 13.7883 18.2069 6.38584 15.3737 3.62673C14.7778 3.04644 13.9316 2.61216 13.043 2.66381ZM9.66365 14.1957C9.74562 14.2152 9.74449 14.1646 9.78123 14.1303C11.4935 12.5455 11.4811 7.46313 9.80554 5.85352C9.77049 5.81979 9.74901 5.76181 9.68457 5.7713C8.92708 7.75037 8.75297 9.94501 9.09045 12.019C9.21142 12.7621 9.43075 13.4789 9.66365 14.1952V14.1957Z" fill="#FFBC00"/>
<path d="M13.0412 2.66396C13.9292 2.61231 14.7755 3.04608 15.3719 3.62689C18.2045 6.386 18.217 13.789 15.2469 16.459C13.2209 18.2805 10.966 16.8801 10.0078 14.8778C10.2006 14.6712 10.4425 14.4673 10.6166 14.2475C12.1073 12.3675 12.1017 8.18798 10.9236 6.17465C10.6766 5.75248 10.3023 5.43204 10.0457 5.0183C10.6008 3.94839 11.672 2.74355 13.0412 2.66396Z" fill="black"/>
<path d="M9.66346 14.1956C9.43056 13.4789 9.21123 12.7621 9.09026 12.0195C8.75278 9.94551 8.92689 7.75087 9.68438 5.7718C9.74939 5.76231 9.7703 5.81976 9.80535 5.85401C11.4809 7.46363 11.4933 12.546 9.78104 14.1308C9.7443 14.1651 9.74543 14.2162 9.66346 14.1962V14.1956Z" fill="black"/>
</g>
<defs>
<clipPath id="clip0_33_3219">
<rect width="20" height="20" fill="white"/>
</clipPath>
</defs>
</svg>
